Genre:Action | Adventure | Romance
Language:English
IMDb:  http://www.imdb.com/title/tt1509767/
Source:1080p.BluRay.x264.EHLE Thanks!

Format : MPEG-4
Format profile : Base Media
Codec ID : isom
File size : 2.65 GiB
Duration : 1h 50mn
Overall bit rate mode : Variable
Overall bit rate : 3 436 Kbps

Video
ID : 1
Format : AVC
Format/Info : Advanced Video Codec
Format profile : High@L5.1
Format settings, CABAC : Yes
Format settings, ReFrames : 5 frames
Codec ID : avc1
Codec ID/Info : Advanced Video Coding
Duration : 1h 50mn
Bit rate : 3 000 Kbps
Maximum bit rate : 17.5 Mbps
Width : 1 280 pixels
Height : 544 pixels
Display aspect ratio : 2.35:1
Frame rate mode : Constant
Frame rate : 23.976 fps
Color space : YUV
Chroma subsampling : 4:2:0
Bit depth : 8 bits
Scan type : Progressive
Bits/(Pixel*Frame) : 0.180
Stream size : 2.31 GiB (87%)
Writing library : x264

Audio
ID : 2
Format : AAC
Format/Info : Advanced Audio Codec
Format profile : LC
Codec ID : 40
Duration : 1h 50mn
Bit rate mode : Variable
Bit rate : 446 Kbps
Maximum bit rate : 529 Kbps
Channel(s) : 6 channels
Channel positions : Front: L C R, Side: L R, LFE
Sampling rate : 48.0 KHz
Compression mode : Lossy
Stream size : 353 MiB (13%)


Plot:
The hot-headed young D'Artagnan along with three former legendary but now down on their luck Musketeers must unite and defeat a beautiful double agent and her villainous employer from seizing the French throne and engulfing Europe in war